<svg xmlns="http://www.w3.org/2000/svg" xmlns:xlink="http://www.w3.org/1999/xlink" width="23" height="23" viewBox="0 0 23 23">
  <defs>
    <clipPath id="clip-path">
      <rect id="Rectangle_45322" data-name="Rectangle 45322" width="23" height="23" transform="translate(3 192.709)" fill="#3dabd5"/>
    </clipPath>
  </defs>
  <g id="Group_4365" data-name="Group 4365" transform="translate(-3 -192.709)" clip-path="url(#clip-path)">
    <g id="Verwijderen" transform="translate(3.725 192.709)">
      <path id="Path_11182" data-name="Path 11182" d="M34.934,1.147c0-.894-.242-1.139-1.121-1.139H14.453c-.144,0-.294,0-.442,0a.788.788,0,0,0-.858.845c-.012,1.674-.012,3.312,0,4.867a.8.8,0,0,0,.872.833c.219.006.441.005.677,0h.262V21.906c0,.864.238,1.1,1.106,1.1h15.94c.868,0,1.105-.237,1.105-1.1V6.558h.77c.771,0,1.045-.277,1.047-1.048,0-1.24,0-2.5,0-3.718V1.147ZM16.585,21.388V6.583h14.9V21.388ZM33.331,1.644V4.924H14.765V1.644Z" transform="translate(-13.144 -0.006)" fill="#3dabd5"/>
      <path id="Path_11183" data-name="Path 11183" d="M193.2,408.17c-.457-.005-.921,0-1.37,0h-1.158c-.448,0-.91,0-1.366,0a.812.812,0,0,0-.907.789.8.8,0,0,0,.868.793c.655.005,1.313.008,1.97.008s1.315,0,1.966-.008a.794.794,0,1,0,0-1.582Z" transform="translate(-180.338 -389.39)" fill="#3dabd5"/>
    </g>
  </g>
</svg>
