<svg xmlns="http://www.w3.org/2000/svg" xmlns:xlink="http://www.w3.org/1999/xlink" width="24" height="24" viewBox="0 0 24 24">
  <defs>
    <clipPath id="clip-path">
      <rect id="Rectangle_45262" data-name="Rectangle 45262" width="24" height="24" transform="translate(3 192.709)" fill="#3dabd5"/>
    </clipPath>
  </defs>
  <g id="Mask_Group_1" data-name="Mask Group 1" transform="translate(-3 -192.709)" clip-path="url(#clip-path)">
    <path id="Dashboard" d="M21.316,35.26h.824A.827.827,0,0,0,22.77,35a.81.81,0,0,0,.08-.985l-3.437-5.264A.839.839,0,0,0,18.27,28.5a.824.824,0,0,0-.251.245l-3.446,5.264a.793.793,0,0,0-.113.608.8.8,0,0,0,.363.513.839.839,0,0,0,.445.128H16.1V47.642H14.755v-9.62a1.117,1.117,0,0,0-1.116-1.116H10.657a1.117,1.117,0,0,0-1.116,1.116v9.62H8.492V41.3a1.117,1.117,0,0,0-1.116-1.116H4.394A1.117,1.117,0,0,0,3.279,41.3v6.34H2.591c-.125-.053-1.144-.5-1.257-1.074V27.96H0V46.521a2.759,2.759,0,0,0,2.756,2.756H24V47.642H21.316ZM4.915,47.642V41.821H6.859v5.821Zm6.262,0v-9.1h1.944v9.1H11.177ZM16.92,33.626h-.212l2-2.957,2,2.957H20.5a.818.818,0,0,0-.817.817v13.2H17.738v-13.2a.818.818,0,0,0-.817-.817Z" transform="translate(3 166.091)" fill="#3dabd5"/>
  </g>
</svg>
