<svg xmlns="http://www.w3.org/2000/svg" width="21.053" height="17.914" viewBox="0 0 21.053 17.914">
  <g id="Group_4254" data-name="Group 4254" transform="translate(-110.78 -882.588)">
    <g id="Arrow_Down" transform="translate(222.706 882.588) rotate(90)">
      <g id="Group_4234" data-name="Group 4234" transform="translate(0 101.4)">
        <path id="Path_11127" data-name="Path 11127" d="M9.656,111.642l7.97-7.97a.976.976,0,0,0,0-1.384l-.586-.593a.982.982,0,0,0-1.387,0l-6.692,6.7-6.7-6.7a.976.976,0,0,0-1.384,0l-.586.59a.976.976,0,0,0,0,1.384l7.978,7.981a.96.96,0,0,0,.7.284A.974.974,0,0,0,9.656,111.642Z" transform="translate(0 -101.4)" fill="#717171"/>
      </g>
    </g>
    <g id="Arrow_Down-2" data-name="Arrow_Down" transform="translate(233.233 882.588) rotate(90)">
      <g id="Group_4234-2" data-name="Group 4234" transform="translate(0 101.4)">
        <path id="Path_11127-2" data-name="Path 11127" d="M9.656,111.642l7.97-7.97a.976.976,0,0,0,0-1.384l-.586-.593a.982.982,0,0,0-1.387,0l-6.692,6.7-6.7-6.7a.976.976,0,0,0-1.384,0l-.586.59a.976.976,0,0,0,0,1.384l7.978,7.981a.96.96,0,0,0,.7.284A.974.974,0,0,0,9.656,111.642Z" transform="translate(0 -101.4)" fill="#717171"/>
      </g>
    </g>
  </g>
</svg>
