<svg xmlns="http://www.w3.org/2000/svg" xmlns:xlink="http://www.w3.org/1999/xlink" width="24" height="24" viewBox="0 0 24 24">
  <defs>
    <clipPath id="clip-path">
      <rect id="Rectangle_45262" data-name="Rectangle 45262" width="24" height="24" transform="translate(3 192.709)" fill="#3dabd5"/>
    </clipPath>
  </defs>
  <g id="Group_1" data-name="Group 1" transform="translate(-3 -192.709)" clip-path="url(#clip-path)">
    <g id="Settings" transform="translate(2.766 192.704)">
      <path id="Path_11139" data-name="Path 11139" d="M21.79,9.514h-.508a9.516,9.516,0,0,0-.623-1.5l.36-.36a2.206,2.206,0,0,0,0-3.121L19.955,3.468a2.2,2.2,0,0,0-3.12,0l-.36.36a9.367,9.367,0,0,0-1.5-.624V2.7A2.208,2.208,0,0,0,12.768.49H10.632A1.608,1.608,0,0,0,9.024,2.1V3.207a9.557,9.557,0,0,0-1.5.623l-.36-.36a2.2,2.2,0,0,0-3.12,0L2.976,4.534a2.2,2.2,0,0,0,0,3.12l.36.36a9.365,9.365,0,0,0-.623,1.5h-1.1A1.608,1.608,0,0,0,0,11.122v2.085a2.207,2.207,0,0,0,2.2,2.21h.513a9.516,9.516,0,0,0,.623,1.5l-.36.36a2.206,2.206,0,0,0,0,3.121l1.064,1.065a2.2,2.2,0,0,0,3.12,0l.36-.36a9.367,9.367,0,0,0,1.5.624v.506a2.208,2.208,0,0,0,2.208,2.208h1.534a2.213,2.213,0,0,0,2.21-2.2v-.513a9.516,9.516,0,0,0,1.5-.623l.36.36a2.206,2.206,0,0,0,3.121,0L21.022,20.4a2.2,2.2,0,0,0,0-3.12l-.36-.36a9.367,9.367,0,0,0,.624-1.5h.506A2.208,2.208,0,0,0,24,13.21V11.725a2.211,2.211,0,0,0-2.209-2.21Zm.769,3.71a.8.8,0,0,1-.8.8H20.729a.7.7,0,0,0-.681.529,8.314,8.314,0,0,1-.891,2.157.708.708,0,0,0,.106.857L20,18.3a.813.813,0,0,1,0,1.141l-1.064,1.069a.8.8,0,0,1-1.136,0l-.733-.737a.7.7,0,0,0-.853-.106,8.319,8.319,0,0,1-2.147.9.7.7,0,0,0-.527.684v1a.8.8,0,0,1-.8.8H11.218a.8.8,0,0,1-.8-.8v-1a.7.7,0,0,0-.527-.684,8.24,8.24,0,0,1-2.147-.9.687.687,0,0,0-.848.111l-.733.737a.8.8,0,0,1-1.136,0L3.961,19.447a.813.813,0,0,1,0-1.141l.733-.737a.708.708,0,0,0,.106-.857,8.383,8.383,0,0,1-.891-2.157.7.7,0,0,0-.681-.529H2.195a.8.8,0,0,1-.8-.8V11.708a.8.8,0,0,1,.8-.8H3.224a.7.7,0,0,0,.681-.529A8.282,8.282,0,0,1,4.8,8.225a.708.708,0,0,0-.106-.857l-.733-.737a.813.813,0,0,1,0-1.141L5.02,4.421a.8.8,0,0,1,1.136,0l.733.737a.7.7,0,0,0,.853.106,8.319,8.319,0,0,1,2.147-.9.7.7,0,0,0,.527-.684v-1a.8.8,0,0,1,.8-.8h1.517a.8.8,0,0,1,.8.8V3.718a.7.7,0,0,0,.529.681,8.314,8.314,0,0,1,2.157.891.708.708,0,0,0,.857-.106l.737-.733a.813.813,0,0,1,1.141,0L20.021,5.51a.8.8,0,0,1,0,1.136l-.737.733a.7.7,0,0,0-.106.853,8.319,8.319,0,0,1,.9,2.147.7.7,0,0,0,.684.527h1a.8.8,0,0,1,.8.8v1.517Z" transform="translate(0 -0.49)" fill="#3dabd5"/>
      <path id="Path_11140" data-name="Path 11140" d="M146.362,141.19a5.222,5.222,0,1,0,5.222,5.222A5.222,5.222,0,0,0,146.362,141.19Zm0,9.038a3.816,3.816,0,1,1,3.816-3.816A3.816,3.816,0,0,1,146.362,150.228Z" transform="translate(-134.365 -134.437)" fill="#3dabd5"/>
    </g>
  </g>
</svg>
