<svg xmlns="http://www.w3.org/2000/svg" xmlns:xlink="http://www.w3.org/1999/xlink" width="24" height="24" viewBox="0 0 24 24">
  <defs>
    <clipPath id="clip-path">
      <rect id="Rectangle_45262" data-name="Rectangle 45262" width="24" height="24" transform="translate(3 192.709)" fill="#3dabd5"/>
    </clipPath>
  </defs>
  <g id="Group_1" data-name="Group 1" transform="translate(-3 -192.709)" clip-path="url(#clip-path)">
    <path id="Send" d="M23.995,101.912a2.389,2.389,0,0,0-.422-1.384l-.3-.428c-.575-.811-1.169-1.65-1.76-2.471a5.517,5.517,0,0,0-2.458-1.961,12.031,12.031,0,0,0-1.268-.4c-.153-.042-.31-.085-.469-.131,0-.108,0-.234,0-.36a1.531,1.531,0,0,0-1.634-1.618H1.665A1.533,1.533,0,0,0,0,94.833v9.584a1.541,1.541,0,0,0,1.663,1.656h.65A2.74,2.74,0,0,0,5,108.218h.04a2.744,2.744,0,0,0,2.62-2.133h9.675c0,.011.005.021.008.032a2.726,2.726,0,0,0,2.639,2.1h.017a2.746,2.746,0,0,0,2.662-2.113c0-.019.009-.038.012-.058q.016-.077.05-.089a1.884,1.884,0,0,0,1.275-1.815c.008-.771.008-1.522,0-2.231Zm-6.667-2.77V96.4c1.2,0,2.964,1.274,3.827,2.746Zm5.441,3.547c0,.448,0,.9,0,1.344v.119a.691.691,0,0,1-.193.5,2.73,2.73,0,0,0-5.233.1c-.014.049-.03.1-.042.139v-4.538h1.205c1.105,0,2.248,0,3.372,0h0a.162.162,0,0,1,.161.088l.158.217a2.747,2.747,0,0,1,.57,1.655c0,.111,0,.234,0,.374ZM18.9,104.4a1.526,1.526,0,0,1,1.086-.457,1.565,1.565,0,0,1,1.533,1.536,1.511,1.511,0,0,1-.451,1.08,1.529,1.529,0,0,1-1.088.457h-.006a1.559,1.559,0,0,1-1.533-1.529A1.526,1.526,0,0,1,18.9,104.4Zm-13.908-.457H5a1.514,1.514,0,0,1,1.075.464,1.536,1.536,0,0,1,.445,1.1,1.515,1.515,0,0,1-1.53,1.509H4.977a1.533,1.533,0,0,1-1.091-.471,1.509,1.509,0,0,1-.438-1.084,1.566,1.566,0,0,1,1.54-1.518Zm-1.745-.6a2.764,2.764,0,0,0-.93,1.518H2.159c-.234,0-.456,0-.678,0a.3.3,0,0,1-.275-.278,1.536,1.536,0,0,1-.006-.179V94.869c0-.438.071-.51.507-.51H15.593c.42,0,.493.075.493.5v10H7.659A2.812,2.812,0,0,0,6.6,103.252a2.634,2.634,0,0,0-1.507-.526,2.678,2.678,0,0,0-1.846.623Z" transform="translate(3 104.02)" fill="#3dabd5"/>
  </g>
</svg>
