<svg xmlns="http://www.w3.org/2000/svg" xmlns:xlink="http://www.w3.org/1999/xlink" width="24" height="24" viewBox="0 0 24 24">
  <defs>
    <clipPath id="clip-path">
      <rect id="Rectangle_45262" data-name="Rectangle 45262" width="24" height="24" transform="translate(3 192.709)" fill="#3dabd5"/>
    </clipPath>
  </defs>
  <g id="Group_1" data-name="Group 1" transform="translate(-3 -192.709)" clip-path="url(#clip-path)">
    <path id="Logboek" d="M66.045,0h-14.9a3.6,3.6,0,0,0-2.62.973A3.609,3.609,0,0,0,47.554,3.6c0,1.592,0,3.211.007,4.777.009,3.935.017,8-.025,12a3.651,3.651,0,0,0,1.044,2.611A3.514,3.514,0,0,0,51.13,24h.043c3.507-.035,7.073-.028,10.523-.021,1.4,0,2.858.006,4.287.006h.01c.843,0,.981-.135.981-.964V.944c0-.785-.156-.944-.927-.944ZM54.236,1.208H65.759V17.3H54.236Zm-5.506,2.31A2.168,2.168,0,0,1,51.051,1.18h1.961V17.31h-.005c-.082,0-.166.01-.247.011-.227,0-.453,0-.68,0-.433,0-.881,0-1.322.007a3.353,3.353,0,0,0-2.029.78V13.7q0-5.092,0-10.183ZM65.773,19.144H61.064l-.093,0a.452.452,0,0,0-.326.054c-.166.133-.393.316-.429.538a.474.474,0,0,0,.1.38.6.6,0,0,0,.447.2c.182.008.366.007.544.007H65.76v.659H61.087c-.031,0-.066,0-.1-.006a.53.53,0,0,0-.348.05.843.843,0,0,0-.414.513c-.031.252.309.515.348.544a.651.651,0,0,0,.408.076h.081c1.14,0,2.3,0,3.419,0h1.274v.632c-.071.006-.143.012-.213.012H64.417c-4.412,0-8.973,0-13.46,0a2.153,2.153,0,0,1-2.111-1.465,2.053,2.053,0,0,1,.737-2.373,2.387,2.387,0,0,1,1.229-.444c2.86-.019,5.755-.023,8.61-.023h6.284a.466.466,0,0,1,.066.006v.635Z" transform="translate(-42.303 192.704)" fill="#3dabd5"/>
  </g>
</svg>
