<svg xmlns="http://www.w3.org/2000/svg" xmlns:xlink="http://www.w3.org/1999/xlink" width="24" height="24" viewBox="0 0 24 24">
  <defs>
    <clipPath id="clip-path">
      <rect id="Rectangle_45262" data-name="Rectangle 45262" width="24" height="24" transform="translate(3 192.709)" fill="#3dabd5"/>
    </clipPath>
  </defs>
  <g id="Mask_Group_1" data-name="Mask Group 1" transform="translate(-3 -192.709)" clip-path="url(#clip-path)">
    <path id="Producten" d="M23.936,22.525a.141.141,0,0,0-.022-.036.126.126,0,0,0-.028-.056.119.119,0,0,0-.07-.085l-.066-.066h-.015a.125.125,0,0,0-.08-.028h0l-7.766-4.438a.562.562,0,0,0-.328-.1H.662A.663.663,0,0,0,0,18.382V33.1a.653.653,0,0,0,.2.464l6.377,6.369h.015a.129.129,0,0,0,.069.028h0l.028.028h.028l.028.028H23.338A.663.663,0,0,0,24,39.357V22.684a.131.131,0,0,0-.032-.1.128.128,0,0,0-.033-.062Zm-17.7.78V37.824L1.324,32.912V19.567L6.236,23.3Zm11.009-1.05-4.816-3.211h2.75L20.8,22.255ZM14.08,26.79V23.579h1.794V26.79ZM7.56,23.579h5.2v3.873a.663.663,0,0,0,.662.662h3.118a.663.663,0,0,0,.662-.662V23.579h5.478V38.7H7.56Zm5.716-1.324L8.46,19.044h1.584l4.816,3.211Zm-2.384,0H7.072L2.844,19.044H6.075l4.816,3.211Z" transform="translate(2.862 174.984)" fill="#3dabd5"/>
  </g>
</svg>
