<svg xmlns="http://www.w3.org/2000/svg" xmlns:xlink="http://www.w3.org/1999/xlink" width="24" height="24" viewBox="0 0 24 24">
  <defs>
    <clipPath id="clip-path">
      <rect id="Rectangle_45262" data-name="Rectangle 45262" width="24" height="24" transform="translate(3 192.709)" fill="#3dabd5"/>
    </clipPath>
  </defs>
  <g id="Mask_Group_1" data-name="Mask Group 1" transform="translate(-3 -192.709)" clip-path="url(#clip-path)">
    <path id="Filters" d="M28.239,0H7.441C7.362,0,7.28,0,7.2.005a1.127,1.127,0,0,0-.847.466,1.2,1.2,0,0,0,.08,1.47L6.469,2c2.454,3.46,4.991,7.038,7.491,10.548a2.753,2.753,0,0,1,.538,1.686c-.01,2.014-.008,4.061-.006,6.041q0,1.206,0,2.411a1.192,1.192,0,0,0,.311.939,2.019,2.019,0,0,0,.378.26c.054.032.106.061.155.093l.035.023h.518l.042-.042,0,0c1.458-.556,2.927-1.111,4.348-1.648a1.137,1.137,0,0,0,.878-1.281q0-.852,0-1.7c0-1.68,0-3.418-.005-5.127a2.633,2.633,0,0,1,.509-1.6c.994-1.387,2-2.8,2.967-4.17L25.784,6.8c1.147-1.619,2.313-3.26,3.441-4.847l.016-.023A1.216,1.216,0,0,0,29.5.864,1.152,1.152,0,0,0,28.238,0ZM19.665,18.3q0,1.235,0,2.469c0,.132-.016.156-.13.2-.91.335-1.829.688-2.718,1.029l-.786.3-.061.022V22.23q0-1.148,0-2.295c0-1.881,0-3.825.006-5.739a4.21,4.21,0,0,0-.814-2.545c-1.71-2.4-3.443-4.838-5.119-7.2Q8.985,2.96,7.927,1.47H27.712L25.79,4.18c-1.743,2.457-3.545,5-5.328,7.5a4.178,4.178,0,0,0-.8,2.526c.009,1.367.009,2.759.008,4.1Z" transform="translate(-3.128 192.709)" fill="#3dabd5"/>
  </g>
</svg>
