<svg xmlns="http://www.w3.org/2000/svg" xmlns:xlink="http://www.w3.org/1999/xlink" width="24" height="24" viewBox="0 0 24 24">
  <defs>
    <clipPath id="clip-path">
      <rect id="Rectangle_45262" data-name="Rectangle 45262" width="24" height="24" transform="translate(3 192.709)" fill="#3dabd5"/>
    </clipPath>
  </defs>
  <g id="Mask_Group_1" data-name="Mask Group 1" transform="translate(-3 -192.709)" clip-path="url(#clip-path)">
    <path id="Theme" d="M23,4.805a5.082,5.082,0,0,0-.092-1.025A4.613,4.613,0,0,0,18.287.033C15.126.027,11.912.028,8.8.029H4.714a4.371,4.371,0,0,0-1.95.409A4.551,4.551,0,0,0,.013,4.769C0,6.336,0,7.929.006,9.47q0,1.022,0,2.044,0,.817,0,1.634c0,1.654,0,3.363,0,5.045a5.483,5.483,0,0,0,.094,1.089A4.633,4.633,0,0,0,4.754,23.02c1.865,0,3.729,0,5.531,0,2.922,0,5.675,0,7.977-.006a4.986,4.986,0,0,0,1-.1A4.652,4.652,0,0,0,23,18.248c0-4.4,0-8.924,0-13.443ZM8.326,18.147c1.206,1.023,2.43,2.068,3.613,3.078l.64.546H10.84c-1.993,0-4.053,0-6.08,0a3.384,3.384,0,0,1-3.411-2.629,3.5,3.5,0,0,1-.1-.8c-.006-3.458,0-6.975,0-10.375V6.124H8.064V8.062c0,3.119,0,6.346,0,9.518a.689.689,0,0,0,.266.567ZM8.057,1.272V4.849H1.241c0-.046.007-.093.01-.139a5.46,5.46,0,0,1,.09-.773,3.4,3.4,0,0,1,3.231-2.66c.83-.016,1.676-.012,2.494-.008l.99,0ZM13.682,18.2v2.831L10.374,18.2ZM21.333,20a3.3,3.3,0,0,1-2.892,1.769c-.838.029-1.693.022-2.521.015-.316,0-.643-.005-.966-.006V18.207h6.8A3.375,3.375,0,0,1,21.333,20Zm.426-5.294v2.214H9.326V1.272H11.58c2.2,0,4.467,0,6.7,0A3.407,3.407,0,0,1,21.7,4.112a3.369,3.369,0,0,1,.054.621c0,3.325,0,6.705,0,9.974Z" transform="translate(3.587 193.681)" fill="#3dabd5"/>
  </g>
</svg>
