<svg xmlns="http://www.w3.org/2000/svg" width="12.157" height="20.69" viewBox="0 0 12.157 20.69">
  <g id="Arrow_Down" transform="translate(113.557) rotate(90)">
    <g id="Group_4234" data-name="Group 4234" transform="translate(0 101.4)">
      <path id="Path_11127" data-name="Path 11127" d="M11.152,113.229l9.205-9.205a1.127,1.127,0,0,0,0-1.6l-.677-.685a1.135,1.135,0,0,0-1.6,0l-7.729,7.733-7.742-7.742a1.127,1.127,0,0,0-1.6,0l-.677.681a1.127,1.127,0,0,0,0,1.6l9.214,9.218a1.108,1.108,0,0,0,.8.328A1.125,1.125,0,0,0,11.152,113.229Z" transform="translate(0 -101.4)" fill="#717171"/>
    </g>
  </g>
</svg>
