<svg xmlns="http://www.w3.org/2000/svg" width="9.802" height="5.76" viewBox="0 0 9.802 5.76">
  <g id="Arrow_Down" transform="translate(0 -101.4)">
    <g id="Group_3865" data-name="Group 3865" transform="translate(0 101.4)">
      <path id="Path_1052" data-name="Path 1052" d="M5.284,107l4.361-4.361a.534.534,0,0,0,0-.757l-.321-.325a.538.538,0,0,0-.759,0L4.9,105.225l-3.668-3.668a.534.534,0,0,0-.757,0l-.321.323a.534.534,0,0,0,0,.757L4.523,107a.525.525,0,0,0,.381.155A.533.533,0,0,0,5.284,107Z" transform="translate(0 -101.4)" fill="white"/>
    </g>
  </g>
</svg>
