<svg id="Kruisje" xmlns="http://www.w3.org/2000/svg" width="21.321" height="21.32" viewBox="0 0 21.321 21.32">
  <path id="Path_11151" data-name="Path 11151" d="M46.353,66.045a1.528,1.528,0,0,1-1.08-2.609l18.26-18.264a1.528,1.528,0,0,1,2.161,2.161L47.433,65.6A1.531,1.531,0,0,1,46.353,66.045Z" transform="translate(-44.822 -44.725)" fill="#717171"/>
  <path id="Path_11152" data-name="Path 11152" d="M64.517,66.142a1.52,1.52,0,0,1-1.081-.448L45.172,47.433a1.528,1.528,0,0,1,2.161-2.161L65.6,63.533a1.528,1.528,0,0,1-1.083,2.609Z" transform="translate(-44.725 -44.822)" fill="#717171"/>
</svg>
