<svg id="Kruisje" xmlns="http://www.w3.org/2000/svg" width="14.23" height="14.229" viewBox="0 0 14.23 14.229">
  <path id="Path_11151" data-name="Path 11151" d="M45.845,58.954a1.02,1.02,0,0,1-.721-1.741L57.311,45.023a1.02,1.02,0,1,1,1.442,1.442L46.566,58.656A1.022,1.022,0,0,1,45.845,58.954Z" transform="translate(-44.824 -44.725)" fill="#fff"/>
  <path id="Path_11152" data-name="Path 11152" d="M57.934,59.052a1.015,1.015,0,0,1-.721-.3L45.023,46.566a1.02,1.02,0,0,1,1.442-1.442L58.656,57.311a1.02,1.02,0,0,1-.723,1.741Z" transform="translate(-44.725 -44.824)" fill="#fff"/>
</svg>
