<svg id="Group_4267" data-name="Group 4267" xmlns="http://www.w3.org/2000/svg" xmlns:xlink="http://www.w3.org/1999/xlink" width="17.731" height="17" viewBox="0 0 17.731 17">
  <defs>
    <clipPath id="clip-path">
      <rect id="Rectangle_45275" data-name="Rectangle 45275" width="17.731" height="17" fill="#717171"/>
    </clipPath>
  </defs>
  <g id="Group_4267-2" data-name="Group 4267" clip-path="url(#clip-path)">
    <path id="Path_11149" data-name="Path 11149" d="M1.7,8.5c0,1.505,0,3.011,0,4.516a2.261,2.261,0,0,0,1.815,2.233,2.479,2.479,0,0,0,.507.05c1.141,0,2.281,0,3.422,0A2.281,2.281,0,0,0,9.78,13.031a.847.847,0,1,1,1.693.024A3.962,3.962,0,0,1,7.892,16.97c-.491.042-.986.026-1.48.028-.8,0-1.6,0-2.4,0A3.965,3.965,0,0,1,.006,13.011Q-.006,8.5.006,3.979A3.958,3.958,0,0,1,3.407.043,4.187,4.187,0,0,1,4.022,0c1.135,0,2.269,0,3.4,0a3.973,3.973,0,0,1,4,3.355,3.7,3.7,0,0,1,.047.579A.846.846,0,1,1,9.78,3.96,2.252,2.252,0,0,0,8.632,2a2.117,2.117,0,0,0-1.109-.3c-1.188,0-2.375-.006-3.563,0A2.27,2.27,0,0,0,1.7,3.952c-.008,1.517,0,3.034,0,4.551" transform="translate(0 0)" fill="#717171"/>
    <path id="Path_11150" data-name="Path 11150" d="M147.57,142.057h-8.688a.847.847,0,0,1-.108-1.691c.07,0,.141,0,.212,0h8.535l.045-.051a.56.56,0,0,1-.12-.058c-.484-.391-.971-.78-1.449-1.18a.787.787,0,0,1-.271-.826.8.8,0,0,1,.569-.616.79.79,0,0,1,.766.136c1.154.929,2.308,1.857,3.452,2.8a.832.832,0,0,1-.038,1.319c-.6.495-1.2.979-1.806,1.467-.53.43-1.054.865-1.592,1.284a.84.84,0,0,1-1.369-.569.816.816,0,0,1,.326-.759l1.41-1.144c.031-.025.06-.052.125-.108" transform="translate(-133.09 -132.71)" fill="#717171"/>
  </g>
</svg>
