<svg id="Export" xmlns="http://www.w3.org/2000/svg" width="20" height="16.366" viewBox="0 0 20 16.366">
  <path id="Path_11133" data-name="Path 11133" d="M157.926,49.812l1.282-1.282v7.809a.909.909,0,0,0,1.818,0V48.53l1.282,1.291a.909.909,0,0,0,1.286.005l.005-.005a.922.922,0,0,0,0-1.291l-2.836-2.836a.909.909,0,0,0-.582-.264h-.173a.909.909,0,0,0-.491.218l-.046.046-2.836,2.827a.913.913,0,0,0,1.291,1.291Z" transform="translate(-150.113 -45.43)" fill="#fff"/>
  <path id="Path_11134" data-name="Path 11134" d="M19.091,204.53a.909.909,0,0,0-.909.909v6.546a.845.845,0,0,1-.909.727H2.727a.845.845,0,0,1-.909-.727v-6.546a.909.909,0,1,0-1.818,0v6.546a2.646,2.646,0,0,0,2.727,2.546H17.273A2.646,2.646,0,0,0,20,211.985v-6.546A.909.909,0,0,0,19.091,204.53Z" transform="translate(0 -198.166)" fill="#fff"/>
</svg>
