<svg xmlns="http://www.w3.org/2000/svg" width="19.068" height="19.068" viewBox="0 0 19.068 19.068">
  <path id="Path_11186" data-name="Path 11186" d="M17.9,10.8H12.746A1.951,1.951,0,0,0,10.8,12.746V17.9a1.951,1.951,0,0,0,1.946,1.946H17.9A1.951,1.951,0,0,0,19.848,17.9V12.746A1.951,1.951,0,0,0,17.9,10.8Zm.973,7.1a.976.976,0,0,1-.973.973H12.746a.976.976,0,0,1-.973-.973V12.746a.976.976,0,0,1,.973-.973H17.9a.976.976,0,0,1,.973.973Zm9.048-7.1H22.766a1.951,1.951,0,0,0-1.946,1.946V17.9a1.951,1.951,0,0,0,1.946,1.946h5.156A1.951,1.951,0,0,0,29.868,17.9V12.746A1.951,1.951,0,0,0,27.923,10.8Zm.973,7.1a.976.976,0,0,1-.973.973H22.766a.976.976,0,0,1-.973-.973V12.746a.976.976,0,0,1,.973-.973h5.156a.976.976,0,0,1,.973.973ZM17.9,20.821H12.746A1.951,1.951,0,0,0,10.8,22.766v5.156a1.951,1.951,0,0,0,1.946,1.946H17.9a1.951,1.951,0,0,0,1.946-1.946V22.766A1.951,1.951,0,0,0,17.9,20.821Zm.973,7.1a.976.976,0,0,1-.973.973H12.746a.976.976,0,0,1-.973-.973V22.766a.976.976,0,0,1,.973-.973H17.9a.976.976,0,0,1,.973.973Zm9.048-7.1H22.766a1.951,1.951,0,0,0-1.946,1.946v5.156a1.951,1.951,0,0,0,1.946,1.946h5.156a1.951,1.951,0,0,0,1.946-1.946V22.766A1.951,1.951,0,0,0,27.923,20.821Zm.973,7.1a.976.976,0,0,1-.973.973H22.766a.976.976,0,0,1-.973-.973V22.766a.976.976,0,0,1,.973-.973h5.156a.976.976,0,0,1,.973.973Z" transform="translate(-10.8 -10.8)" fill="#717171"/>
</svg>
