<svg xmlns="http://www.w3.org/2000/svg" xmlns:xlink="http://www.w3.org/1999/xlink" width="18" height="18" viewBox="0 0 18 18">
  <defs>
    <clipPath id="clip-path">
      <rect id="Rectangle_45699" data-name="Rectangle 45699" width="18" height="18" transform="translate(3 193.083)" fill="#fff"/>
    </clipPath>
  </defs>
  <g id="Mask_Group_3" data-name="Mask Group 3" transform="translate(-3 -193.083)" clip-path="url(#clip-path)">
    <g id="Opslag" transform="translate(2.82 192.678)">
      <path id="Path_11189" data-name="Path 11189" d="M17.381,4.678,10.737.832a3.073,3.073,0,0,0-3.073,0L1.02,4.678A2.044,2.044,0,0,0,0,6.447v10.3A2.045,2.045,0,0,0,2.045,18.79H16.357A2.045,2.045,0,0,0,18.4,16.745V6.447a2.048,2.048,0,0,0-1.02-1.769ZM14.312,17.427H4.089V16.4H14.312Zm0-2.386H4.089V13.678H14.312Zm0-2.726H4.089V10.952H14.312Zm0-2.726H4.089V8.567H14.312Zm2.726,7.156a.681.681,0,0,1-.682.682h-.682V7.886a.681.681,0,0,0-.682-.682H3.407a.681.681,0,0,0-.682.682v9.541H2.044a.681.681,0,0,1-.682-.682V6.447a.682.682,0,0,1,.34-.59L8.347,2.012a1.707,1.707,0,0,1,1.707,0L16.7,5.858a.684.684,0,0,1,.34.59v10.3Z" transform="translate(0 -0.42)" fill="#fff"/>
      <path id="Path_11190" data-name="Path 11190" d="M182.868,110.69h-3.557a.7.7,0,0,0-.675.459.684.684,0,0,0,.646.9h3.557a.7.7,0,0,0,.675-.459A.684.684,0,0,0,182.868,110.69Z" transform="translate(-172.027 -106.632)" fill="#fff"/>
    </g>
  </g>
</svg>
