<svg xmlns="http://www.w3.org/2000/svg" xmlns:xlink="http://www.w3.org/1999/xlink" width="24" height="24" viewBox="0 0 24 24">
  <defs>
    <clipPath id="clip-path">
      <rect id="Rectangle_45262" data-name="Rectangle 45262" width="24" height="24" transform="translate(3 192.709)" fill="#3dabd5"/>
    </clipPath>
  </defs>
  <g id="Group_1" data-name="Group 1" transform="translate(-3 -192.709)" clip-path="url(#clip-path)">
    <path id="Verkoopkanalen" d="M18.731,14.472h0a4.3,4.3,0,0,0-3.484,1.782L8.416,12.846a4.309,4.309,0,0,0,0-2.549L15.238,6.88a4.3,4.3,0,0,0,3.483,1.778h0a4.3,4.3,0,0,0,0-8.609h0a4.3,4.3,0,0,0-4.108,5.581L7.788,9.047A4.3,4.3,0,0,0,4.3,7.269h0a4.3,4.3,0,0,0,0,8.609h0A4.3,4.3,0,0,0,7.79,14.1L14.618,17.5a4.308,4.308,0,0,0,4.112,5.577h0a4.3,4.3,0,0,0,0-8.608ZM16.667,2.3a2.887,2.887,0,0,1,2.054-.854h0a2.907,2.907,0,0,1,0,5.814h0A2.905,2.905,0,0,1,16.667,2.3ZM6.36,13.627a2.887,2.887,0,0,1-2.054.854h0a2.907,2.907,0,0,1,0-5.814h0a2.905,2.905,0,0,1,2.055,4.96Zm14.426,7.2a2.887,2.887,0,0,1-2.054.854h0a2.907,2.907,0,0,1,0-5.814h0a2.905,2.905,0,0,1,2.056,4.96Z" transform="translate(3.246 192.734)" fill="#fff"/>
  </g>
</svg>
