<svg id="Group_4322" data-name="Group 4322" xmlns="http://www.w3.org/2000/svg" width="14.808" height="19.16" viewBox="0 0 14.808 19.16">
  <path id="Path_11168" data-name="Path 11168" d="M3.16.529A1.314,1.314,0,0,0,1.852,1.835v16.55A1.314,1.314,0,0,0,3.16,19.69H15.354a1.311,1.311,0,0,0,1.305-1.305V5.319a3.467,3.467,0,0,0-.527-1.839L14.878,1.471a2.011,2.011,0,0,0-1.7-.942Zm0,.871H13.174a1.136,1.136,0,0,1,.964.534L15.393,3.94a2.6,2.6,0,0,1,.4,1.379V18.385a.429.429,0,0,1-.434.437H3.16a.432.432,0,0,1-.437-.437V1.835A.429.429,0,0,1,3.16,1.4Z" transform="translate(-1.852 -0.529)" fill="#fff"/>
  <path id="Path_11169" data-name="Path 11169" d="M3.61.529a.436.436,0,0,0-.434.434V4.885A1.311,1.311,0,0,0,4.481,6.191h5.661a1.311,1.311,0,0,0,1.305-1.305V.963a.436.436,0,0,0-.434-.434Zm.437.871H10.58V4.885a.429.429,0,0,1-.437.434H4.481a.427.427,0,0,1-.434-.434Z" transform="translate(-0.996 -0.529)" fill="#fff"/>
  <path id="Path_11170" data-name="Path 11170" d="M4.67,7.408a.436.436,0,1,0,0,.871H9.9a.436.436,0,0,0,0-.871Z" transform="translate(-0.314 3.914)" fill="#fff"/>
  <path id="Path_11171" data-name="Path 11171" d="M4.481,6.35A1.314,1.314,0,0,0,3.176,7.658V15.5a.436.436,0,0,0,.434.434h9.58a.436.436,0,0,0,.437-.434V7.658A1.316,1.316,0,0,0,12.319,6.35Zm0,.871h7.838a.432.432,0,0,1,.437.437v7.4H4.047v-7.4A.429.429,0,0,1,4.481,7.221Z" transform="translate(-0.996 3.231)" fill="#fff"/>
</svg>
