<svg id="Settings" xmlns="http://www.w3.org/2000/svg" width="21.102" height="21.06" viewBox="0 0 21.102 21.06">
  <path id="Path_11139" data-name="Path 11139" d="M19.159,8.425h-.447a8.367,8.367,0,0,0-.548-1.32l.316-.316a1.94,1.94,0,0,0,0-2.744l-.935-.936a1.937,1.937,0,0,0-2.743,0l-.316.316a8.236,8.236,0,0,0-1.319-.548V2.431A1.941,1.941,0,0,0,11.226.49H9.348A1.414,1.414,0,0,0,7.934,1.9v.975a8.4,8.4,0,0,0-1.323.548L6.3,3.111a1.938,1.938,0,0,0-2.743,0l-.935.935a1.938,1.938,0,0,0,0,2.743l.316.316a8.234,8.234,0,0,0-.548,1.319H1.414A1.414,1.414,0,0,0,0,9.838v1.833a1.94,1.94,0,0,0,1.938,1.943h.451a8.367,8.367,0,0,0,.548,1.32l-.316.316a1.94,1.94,0,0,0,0,2.744l.935.936a1.937,1.937,0,0,0,2.743,0l.316-.316a8.236,8.236,0,0,0,1.319.548v.445A1.941,1.941,0,0,0,9.876,21.55h1.348a1.946,1.946,0,0,0,1.943-1.938v-.451a8.367,8.367,0,0,0,1.32-.548l.316.316a1.94,1.94,0,0,0,2.744,0l.936-.935a1.937,1.937,0,0,0,0-2.743l-.316-.316a8.236,8.236,0,0,0,.548-1.319h.445A1.941,1.941,0,0,0,21.1,11.674V10.368A1.944,1.944,0,0,0,19.16,8.425Zm.677,3.262a.707.707,0,0,1-.7.7h-.9a.618.618,0,0,0-.6.466,7.31,7.31,0,0,1-.784,1.9.623.623,0,0,0,.093.753l.645.644a.715.715,0,0,1,0,1l-.935.94a.707.707,0,0,1-1,0L15,17.446a.615.615,0,0,0-.75-.093,7.315,7.315,0,0,1-1.888.788.62.62,0,0,0-.463.6v.88a.707.707,0,0,1-.7.7H9.863a.707.707,0,0,1-.7-.7v-.88a.619.619,0,0,0-.463-.6,7.245,7.245,0,0,1-1.888-.788.6.6,0,0,0-.746.1l-.645.648a.707.707,0,0,1-1,0l-.935-.94a.715.715,0,0,1,0-1l.645-.648a.623.623,0,0,0,.093-.753,7.371,7.371,0,0,1-.784-1.9.618.618,0,0,0-.6-.466H1.93a.707.707,0,0,1-.7-.7V10.353a.707.707,0,0,1,.7-.7h.9a.618.618,0,0,0,.6-.466,7.282,7.282,0,0,1,.784-1.892.623.623,0,0,0-.093-.753L3.479,5.89a.715.715,0,0,1,0-1l.935-.94a.707.707,0,0,1,1,0l.645.648a.615.615,0,0,0,.75.093A7.315,7.315,0,0,1,8.7,3.9a.62.62,0,0,0,.463-.6V2.42a.707.707,0,0,1,.7-.7H11.2a.707.707,0,0,1,.7.7v.909a.618.618,0,0,0,.466.6,7.31,7.31,0,0,1,1.9.784.623.623,0,0,0,.753-.093l.648-.645a.715.715,0,0,1,1,0L17.6,4.9a.707.707,0,0,1,0,1l-.648.645a.615.615,0,0,0-.093.75,7.315,7.315,0,0,1,.788,1.888.62.62,0,0,0,.6.463h.88a.707.707,0,0,1,.7.7v1.334Z" transform="translate(0 -0.49)" fill="#717171"/>
  <path id="Path_11140" data-name="Path 11140" d="M145.732,141.19a4.592,4.592,0,1,0,4.592,4.592A4.591,4.591,0,0,0,145.732,141.19Zm0,7.947a3.355,3.355,0,1,1,3.355-3.355A3.356,3.356,0,0,1,145.732,149.137Z" transform="translate(-135.183 -135.252)" fill="#717171"/>
</svg>
