<svg xmlns="http://www.w3.org/2000/svg" xmlns:xlink="http://www.w3.org/1999/xlink" width="20" height="20" viewBox="0 0 20 20">
  <defs>
    <clipPath id="clip-path">
      <rect id="Rectangle_45272" data-name="Rectangle 45272" width="20" height="20" transform="translate(3 192.709)" fill="#fff"/>
    </clipPath>
  </defs>
  <g id="Group_4261" data-name="Group 4261" transform="translate(-3 -192.709)" clip-path="url(#clip-path)">
    <g id="Archive" transform="translate(2.505 192.709)">
      <path id="Path_11129" data-name="Path 11129" d="M18.476,2.883c-.74-.048-1.484-.022-2.227-.022a.3.3,0,0,1-.275-.138c-.563-.783-1.136-1.558-1.7-2.343A.839.839,0,0,0,13.537,0Q10.073.009,6.609,0a.866.866,0,0,0-.759.38c-.568.772-1.15,1.534-1.719,2.3a.393.393,0,0,1-.362.178c-.7-.006-1.393-.022-2.087.016A1.752,1.752,0,0,0,.067,4.534,1.772,1.772,0,0,0,1.512,6.392a6.821,6.821,0,0,0,.693.054v.226q0,4.832,0,9.665a5.046,5.046,0,0,0,.071.889,3.1,3.1,0,0,0,1.978,2.522A4.289,4.289,0,0,0,5.839,20Q10,20,14.171,20a6.382,6.382,0,0,0,.787-.038,3.084,3.084,0,0,0,2.67-1.954,4.238,4.238,0,0,0,.294-1.645q0-4.841,0-9.682V6.427c.155,0,.288,0,.421,0a1.784,1.784,0,0,0,1.719-1.688,1.751,1.751,0,0,0-1.586-1.856ZM5.884,2.72c.289-.39.575-.781.872-1.164a.329.329,0,0,1,.226-.116q3.078-.01,6.156,0a.24.24,0,0,1,.171.052c.339.438.671.882,1.026,1.354H5.81c.03-.05.049-.089.074-.123Zm10.56,14.4a1.9,1.9,0,0,1-2.031,1.462c-.076-.007-.152-.008-.228-.008q-4.122,0-8.245,0a4,4,0,0,1-.835-.041A1.89,1.89,0,0,1,3.63,16.493c.008-.081.007-.164.007-.245v-9.8H16.49v.228q0,4.8,0,9.6A4.137,4.137,0,0,1,16.444,17.119ZM18.307,5c-.268.013-.538.007-.807.007H10.065V4.992H3.084c-.4,0-.795.011-1.192.009a.352.352,0,0,1-.4-.35.356.356,0,0,1,.4-.363c.743,0,1.485,0,2.227,0l10.681,0q1.666,0,3.332,0a1.421,1.421,0,0,1,.175,0,.351.351,0,0,1,.317.358A.335.335,0,0,1,18.307,5Z" transform="translate(-0.064 0)" fill="#fff"/>
      <path id="Path_11130" data-name="Path 11130" d="M322.762,268.625a1.113,1.113,0,0,0-.02-.261.714.714,0,0,0-1.407.218q0,2.805,0,5.61a.947.947,0,0,0,.044.292.71.71,0,0,0,1.381-.232c0-.953,0-1.905,0-2.858q0-1.385,0-2.77Z" transform="translate(-308.48 -257.102)" fill="#fff"/>
      <path id="Path_11131" data-name="Path 11131" d="M144.263,268.326a.71.71,0,0,0-1.351.293c0,.958,0,1.917,0,2.875q0,1.385,0,2.77a1.066,1.066,0,0,0,.021.26.713.713,0,0,0,1.4-.2q.007-2.84,0-5.681a.814.814,0,0,0-.072-.321Z" transform="translate(-137.194 -257.201)" fill="#fff"/>
      <path id="Path_11132" data-name="Path 11132" d="M233.624,268.553a.726.726,0,0,0-.219-.57.712.712,0,0,0-1.2.527q0,1.42,0,2.84c0,.941,0,1.882,0,2.822a.7.7,0,0,0,.4.682.706.706,0,0,0,1.017-.656c.006-.976,0-1.952,0-2.928C233.623,270.365,233.621,269.459,233.624,268.553Z" transform="translate(-222.912 -257.065)" fill="#fff"/>
    </g>
  </g>
</svg>
