<svg id="user" data-name="user" xmlns="http://www.w3.org/2000/svg" viewBox="0 0 26.847 32.179">
  <path id="Path_11125" data-name="Path 11125" d="M94.782,15.5a7.5,7.5,0,0,0,5.48-2.271,7.5,7.5,0,0,0,2.27-5.48,7.5,7.5,0,0,0-2.271-5.48,7.749,7.749,0,0,0-10.96,0,7.5,7.5,0,0,0-2.271,5.48A7.5,7.5,0,0,0,89.3,13.23,7.5,7.5,0,0,0,94.782,15.5ZM90.635,3.6a5.863,5.863,0,0,1,8.293,0,5.6,5.6,0,0,1,1.718,4.146A5.6,5.6,0,0,1,98.928,11.9a5.862,5.862,0,0,1-8.293,0A5.6,5.6,0,0,1,88.917,7.75,5.6,5.6,0,0,1,90.635,3.6Zm0,0" transform="translate(-81.561)" fill="#808080"/>
  <path id="Path_11126" data-name="Path 11126" d="M26.782,256.517a19.143,19.143,0,0,0-.261-2.033,16.021,16.021,0,0,0-.5-2.044,10.1,10.1,0,0,0-.841-1.907,7.187,7.187,0,0,0-1.267-1.651,5.587,5.587,0,0,0-1.82-1.144,6.291,6.291,0,0,0-2.324-.421,2.359,2.359,0,0,0-1.26.534c-.378.246-.819.531-1.312.846a7.519,7.519,0,0,1-1.7.748,6.593,6.593,0,0,1-4.153,0,7.5,7.5,0,0,1-1.7-.748c-.488-.312-.93-.6-1.313-.846a2.356,2.356,0,0,0-1.259-.534,6.283,6.283,0,0,0-2.324.421,5.583,5.583,0,0,0-1.821,1.144,7.189,7.189,0,0,0-1.267,1.651,10.117,10.117,0,0,0-.84,1.907,16.058,16.058,0,0,0-.5,2.044,19.012,19.012,0,0,0-.261,2.034c-.043.615-.064,1.254-.064,1.9a5.343,5.343,0,0,0,1.587,4.042,5.712,5.712,0,0,0,4.089,1.491H21.17a5.713,5.713,0,0,0,4.089-1.491,5.341,5.341,0,0,0,1.587-4.043C26.846,257.769,26.825,257.129,26.782,256.517Zm-2.822,4.577a3.846,3.846,0,0,1-2.789.972H5.676a3.846,3.846,0,0,1-2.789-.972,3.489,3.489,0,0,1-1-2.676c0-.6.02-1.2.06-1.77a17.15,17.15,0,0,1,.236-1.831,14.162,14.162,0,0,1,.44-1.8,8.237,8.237,0,0,1,.684-1.55,5.328,5.328,0,0,1,.931-1.22,3.706,3.706,0,0,1,1.211-.753,4.339,4.339,0,0,1,1.485-.286c.066.035.184.1.374.226.388.253.834.541,1.328.856a9.342,9.342,0,0,0,2.131.952,8.477,8.477,0,0,0,5.313,0,9.354,9.354,0,0,0,2.132-.953c.505-.323.94-.6,1.327-.856.191-.124.308-.191.374-.226a4.342,4.342,0,0,1,1.486.286,3.712,3.712,0,0,1,1.211.753,5.314,5.314,0,0,1,.931,1.221,8.209,8.209,0,0,1,.684,1.55,14.13,14.13,0,0,1,.44,1.8,17.293,17.293,0,0,1,.236,1.832h0c.04.569.06,1.164.06,1.769A3.489,3.489,0,0,1,23.959,261.094Zm0,0" transform="translate(0 -231.773)" fill="#808080"/>
</svg>