<svg xmlns="http://www.w3.org/2000/svg" xmlns:xlink="http://www.w3.org/1999/xlink" width="172.424" height="20.502" viewBox="0 0 172.424 20.502">
  <defs>
    <clipPath id="clip-path">
      <rect id="Rectangle_45256" data-name="Rectangle 45256" width="172.424" height="20.502" fill="#3dabd5"/>
    </clipPath>
  </defs>
  <g id="Group_4233" data-name="Group 4233" transform="translate(-7)">
    <g id="Group_4232" data-name="Group 4232" transform="translate(7)" clip-path="url(#clip-path)">
      <path id="Path_11108" data-name="Path 11108" d="M12.51,2.925,9.573,8.517,6.608,2.925H0l6.269,9.855L.028,22.693H6.241L9.573,16.9l3.276,5.789H19.09L12.82,12.809l6.3-9.884Z" transform="translate(0 -2.558)" fill="#3dabd5"/>
      <rect id="Rectangle_45252" data-name="Rectangle 45252" width="5.619" height="19.768" transform="translate(21.546 0.367)" fill="#3dabd5"/>
      <path id="Path_11109" data-name="Path 11109" d="M259.891,14.672l4.462-11.748h7.286V22.692h-5.365V10.662l-3.812,10.477H257.35l-3.784-10.477v12.03h-5.394V2.925h7.314Z" transform="translate(-217.025 -2.558)" fill="#3dabd5"/>
      <g id="Group_4231" data-name="Group 4231">
        <g id="Group_4230" data-name="Group 4230" clip-path="url(#clip-path)">
          <path id="Path_11110" data-name="Path 11110" d="M458.995,10.223c0-5.7,4.151-10.223,10.674-10.223s10.675,4.518,10.675,10.223c0,5.789-4.151,10.279-10.675,10.279s-10.674-4.49-10.674-10.279m5.874,0c0,2.965,1.92,5.14,4.8,5.14s4.8-2.174,4.8-5.14a4.808,4.808,0,1,0-9.6,0" transform="translate(-401.389)" fill="#3dabd5"/>
          <path id="Path_11111" data-name="Path 11111" d="M647.279,13.385a3.54,3.54,0,0,0,2.711,1.948c.875,0,1.243-.367,1.243-.875,0-2.005-8.048-2.061-8.048-8.359,0-3.756,2.739-6.1,6.834-6.1a6.808,6.808,0,0,1,6.749,4.8l-4.66,2.09c-.4-.819-.875-1.807-2.231-1.807-.678,0-1.073.367-1.073.9,0,2.2,8.1,2.09,8.1,8.048,0,3.784-2.513,6.467-7.088,6.467a7.6,7.6,0,0,1-7.229-4.8Z" transform="translate(-561.943 0)" fill="#3dabd5"/>
          <path id="Path_11112" data-name="Path 11112" d="M776.452,7.839h-4.038V2.926h13.753V7.839h-4.095V22.693h-5.62Z" transform="translate(-675.472 -2.559)" fill="#3dabd5"/>
          <path id="Path_11113" data-name="Path 11113" d="M894.139,10.223C894.139,4.518,898.29,0,904.813,0s10.674,4.518,10.674,10.223c0,5.789-4.151,10.279-10.674,10.279s-10.675-4.49-10.675-10.279m5.874,0c0,2.965,1.92,5.14,4.8,5.14s4.8-2.174,4.8-5.14a4.809,4.809,0,1,0-9.6,0" transform="translate(-781.92)" fill="#3dabd5"/>
          <path id="Path_11114" data-name="Path 11114" d="M1090.8,0a10.878,10.878,0,0,1,5.987,1.695l-1.553,4.913a6.4,6.4,0,0,0-4.151-1.468,4.857,4.857,0,0,0-5,5.083,4.872,4.872,0,0,0,5,5.14,6.4,6.4,0,0,0,4.151-1.468l1.553,4.914A10.878,10.878,0,0,1,1090.8,20.5c-6.411,0-10.59-4.547-10.59-10.279,0-5.676,4.179-10.223,10.59-10.223" transform="translate(-944.64 0.001)" fill="#3dabd5"/>
          <path id="Path_11115" data-name="Path 11115" d="M1236.587,2.925h5.62v7.907l5.14-7.907h6.241l-6.58,9.46,6.806,10.307h-6.41l-5.2-8.076v8.076h-5.62Z" transform="translate(-1081.389 -2.558)" fill="#3dabd5"/>
          <g id="Group_4229" data-name="Group 4229" opacity="0.15">
            <g id="Group_4228" data-name="Group 4228">
              <g id="Group_4227" data-name="Group 4227" clip-path="url(#clip-path)">
                <path id="Path_11116" data-name="Path 11116" d="M6.269,12.781,0,2.926H6.608L9.573,8.517,12.51,2.926h6.608l-6.3,9.884,6.269,9.884H12.849L9.573,16.9,6.241,22.693H.028Z" transform="translate(0 -2.559)" fill="#3dabd5"/>
                <rect id="Rectangle_45253" data-name="Rectangle 45253" width="5.619" height="19.768" transform="translate(21.546 0.367)" fill="#3dabd5"/>
                <path id="Path_11117" data-name="Path 11117" d="M259.891,14.672l4.462-11.748h7.286V22.692h-5.365V10.662l-3.812,10.477H257.35l-3.784-10.477v12.03h-5.394V2.925h7.314Z" transform="translate(-217.025 -2.558)" fill="#3dabd5"/>
                <path id="Path_11118" data-name="Path 11118" d="M458.995,10.223c0-5.7,4.151-10.223,10.674-10.223s10.675,4.518,10.675,10.223c0,5.789-4.151,10.279-10.675,10.279s-10.674-4.49-10.674-10.279m5.874,0c0,2.965,1.92,5.14,4.8,5.14s4.8-2.174,4.8-5.14a4.808,4.808,0,1,0-9.6,0" transform="translate(-401.389)" fill="#3dabd5"/>
                <path id="Path_11119" data-name="Path 11119" d="M647.279,13.385a3.54,3.54,0,0,0,2.711,1.948c.875,0,1.243-.367,1.243-.875,0-2.005-8.048-2.061-8.048-8.359,0-3.756,2.739-6.1,6.834-6.1a6.808,6.808,0,0,1,6.749,4.8l-4.66,2.09c-.4-.819-.875-1.807-2.231-1.807-.678,0-1.073.367-1.073.9,0,2.2,8.1,2.09,8.1,8.048,0,3.784-2.513,6.467-7.088,6.467a7.6,7.6,0,0,1-7.229-4.8Z" transform="translate(-561.943 0)" fill="#3dabd5"/>
                <path id="Path_11120" data-name="Path 11120" d="M776.452,7.839h-4.038V2.926h13.753V7.839h-4.095V22.693h-5.62Z" transform="translate(-675.472 -2.559)" fill="#3dabd5"/>
                <path id="Path_11121" data-name="Path 11121" d="M894.139,10.223C894.139,4.518,898.29,0,904.813,0s10.674,4.518,10.674,10.223c0,5.789-4.151,10.279-10.674,10.279s-10.675-4.49-10.675-10.279m5.874,0c0,2.965,1.92,5.14,4.8,5.14s4.8-2.174,4.8-5.14a4.809,4.809,0,1,0-9.6,0" transform="translate(-781.92)" fill="#3dabd5"/>
                <path id="Path_11122" data-name="Path 11122" d="M1090.8,0a10.878,10.878,0,0,1,5.987,1.695l-1.553,4.913a6.4,6.4,0,0,0-4.151-1.468,4.857,4.857,0,0,0-5,5.083,4.872,4.872,0,0,0,5,5.14,6.4,6.4,0,0,0,4.151-1.468l1.553,4.914A10.878,10.878,0,0,1,1090.8,20.5c-6.411,0-10.59-4.547-10.59-10.279,0-5.676,4.179-10.223,10.59-10.223" transform="translate(-944.64 0.001)" fill="#3dabd5"/>
                <path id="Path_11123" data-name="Path 11123" d="M1236.587,2.925h5.62v7.907l5.14-7.907h6.241l-6.58,9.46,6.806,10.307h-6.41l-5.2-8.076v8.076h-5.62Z" transform="translate(-1081.389 -2.558)" fill="#3dabd5"/>
              </g>
            </g>
          </g>
        </g>
      </g>
    </g>
  </g>
</svg>
